<?xml version="1.0" encoding="UTF-8" ?>
<!DOCTYPE svg PUBLIC "-//W3C//DTD SVG 1.1//EN" "http://www.w3.org/Graphics/SVG/1.1/DTD/svg11.dtd">
<svg width="500pt" height="500pt" viewBox="0 0 500 500" version="1.1" xmlns="http://www.w3.org/2000/svg">
<g id="#000000ff">
<path fill="#000000" opacity="1.00" d=" M 192.99 26.11 C 234.63 15.52 279.21 16.78 320.14 29.86 C 351.54 39.83 380.74 56.67 405.10 78.86 C 445.15 114.99 472.19 165.61 478.78 219.23 C 475.51 208.46 474.66 197.06 470.50 186.54 C 468.01 180.05 465.49 173.57 462.88 167.13 C 459.76 159.59 454.67 153.14 450.62 146.11 C 439.07 145.82 427.52 146.16 415.97 145.90 C 413.42 146.05 410.45 145.56 408.34 147.33 C 397.00 157.34 385.58 167.27 374.14 177.16 C 370.32 180.61 365.22 183.47 363.77 188.75 C 360.78 200.20 359.13 212.01 355.27 223.23 C 345.42 217.74 333.80 220.53 323.21 221.49 C 313.00 223.23 302.60 220.49 293.49 215.91 C 293.36 219.66 293.14 223.41 292.95 227.16 C 296.07 228.15 299.35 228.06 302.56 227.57 C 299.01 243.34 300.65 259.57 302.84 275.40 C 303.44 279.75 297.72 280.07 294.85 281.33 C 294.86 283.23 294.91 285.13 294.98 287.03 C 306.44 285.11 317.88 283.00 329.33 281.00 C 325.21 272.84 321.76 264.30 319.66 255.39 C 325.86 260.56 333.75 264.33 342.02 262.82 C 353.57 261.36 360.53 249.86 362.23 239.25 C 362.47 238.10 362.73 236.96 363.00 235.82 C 368.01 242.23 372.87 248.75 377.63 255.35 C 379.27 257.41 380.89 260.32 383.98 259.99 C 404.03 260.09 424.10 259.90 444.16 260.04 C 443.55 269.78 442.31 279.47 441.21 289.17 C 440.63 294.39 440.87 299.71 442.12 304.83 C 445.72 320.72 448.93 336.69 452.62 352.56 C 457.64 345.63 459.84 337.23 463.76 329.70 C 468.89 320.12 470.08 309.17 472.80 298.80 C 474.93 290.85 476.02 282.62 478.98 274.91 C 479.27 281.34 477.97 287.67 476.81 293.96 C 470.11 328.91 455.10 362.21 433.42 390.42 C 411.64 418.88 383.17 442.18 350.93 457.83 C 313.34 476.22 270.64 483.87 228.99 480.03 C 178.02 475.63 128.88 453.41 91.74 418.25 C 66.68 394.71 46.94 365.51 34.54 333.43 C 20.08 296.26 15.63 255.29 21.54 215.85 C 28.08 170.78 48.58 127.92 79.34 94.37 C 109.48 61.17 149.51 37.07 192.99 26.11 M 277.45 39.39 C 275.14 40.68 273.08 42.37 270.99 43.98 C 264.62 48.99 257.84 53.45 251.40 58.37 C 250.57 59.24 249.06 59.82 249.01 61.19 C 248.95 64.52 250.36 67.63 251.21 70.80 C 253.13 76.77 254.10 83.16 257.42 88.60 C 268.43 105.31 279.07 122.27 289.97 139.06 C 290.57 140.64 292.86 141.89 293.57 139.66 C 300.91 127.00 308.12 114.24 315.68 101.70 C 317.77 98.85 316.82 95.35 315.68 92.34 C 311.09 78.96 306.32 65.65 301.80 52.25 C 300.36 46.65 293.82 45.89 289.43 43.53 C 285.51 42.18 281.64 38.83 277.45 39.39 M 135.99 52.96 C 131.08 55.72 125.55 57.50 121.23 61.22 C 108.03 72.66 93.69 82.97 82.54 96.55 C 80.04 99.69 77.09 102.42 74.23 105.23 C 68.37 110.89 64.59 118.22 59.59 124.59 C 57.84 127.23 54.89 130.13 56.37 133.58 C 60.39 144.78 64.93 155.81 69.02 166.99 C 71.80 173.17 73.02 180.20 77.53 185.46 C 89.51 200.20 101.03 215.28 112.85 230.14 C 116.02 233.99 118.61 238.39 122.37 241.70 C 131.94 242.44 141.60 241.84 151.21 241.94 C 146.40 236.01 139.95 231.80 134.73 226.27 C 126.12 218.84 117.88 210.99 109.35 203.48 C 108.22 192.36 105.69 181.42 104.91 170.28 C 139.51 160.49 174.05 150.48 208.66 140.71 C 211.96 139.65 216.17 139.44 218.03 136.03 C 226.81 122.77 235.23 109.27 244.01 96.01 C 246.20 93.05 248.19 89.92 249.34 86.40 C 239.22 82.26 228.70 79.27 218.43 75.54 C 209.66 72.08 200.53 69.61 191.71 66.27 C 182.21 62.58 172.33 59.95 162.85 56.19 C 157.11 54.20 151.38 52.16 145.58 50.38 C 142.13 49.13 138.97 51.58 135.99 52.96 M 384.05 82.06 C 378.75 82.96 374.24 86.01 369.64 88.60 C 362.72 92.32 356.01 96.44 349.02 100.06 C 345.40 101.89 344.13 106.00 342.23 109.28 C 337.77 117.89 331.95 125.91 329.35 135.37 C 326.63 144.53 322.77 153.35 320.76 162.70 C 326.58 163.96 332.25 165.90 338.13 166.91 C 340.59 167.57 342.21 165.23 343.81 163.80 C 350.27 156.92 357.37 150.67 363.50 143.49 C 364.64 142.09 366.48 141.66 368.10 141.07 C 376.58 138.44 384.75 134.88 393.27 132.38 C 401.45 130.92 409.77 130.37 417.95 128.89 C 425.35 127.44 432.90 128.23 440.37 127.88 C 438.35 123.91 435.93 120.18 433.53 116.44 C 426.75 104.64 416.44 95.51 408.11 84.87 C 405.82 82.58 403.82 78.59 400.06 79.02 C 394.66 79.67 389.40 81.12 384.05 82.06 M 147.23 215.91 C 147.09 219.18 147.09 222.45 147.29 225.71 C 149.91 226.93 154.32 226.56 154.89 230.15 C 155.29 237.37 155.19 244.65 156.55 251.80 C 156.46 252.33 156.27 253.40 156.17 253.94 C 148.56 250.90 141.33 246.79 133.37 244.72 C 124.75 258.25 115.59 271.43 106.80 284.85 C 104.66 287.45 107.51 289.98 108.96 292.04 C 117.44 302.93 125.39 314.21 133.99 325.00 C 146.68 341.66 158.96 358.63 171.86 375.13 C 185.18 392.86 198.40 410.65 211.96 428.18 C 211.80 417.75 212.62 407.26 211.24 396.89 C 210.43 388.36 211.61 379.77 210.62 371.26 C 209.42 362.54 210.24 353.72 209.90 344.96 C 209.39 339.50 213.44 335.37 215.99 331.00 C 221.62 321.67 227.51 312.50 233.16 303.18 C 235.57 298.93 238.82 295.13 240.32 290.41 C 232.34 287.28 224.67 283.44 216.69 280.31 C 214.05 279.31 211.55 277.94 209.36 276.15 C 215.91 270.54 216.44 260.87 214.90 252.95 C 213.19 244.31 210.69 235.13 204.10 228.87 C 198.57 223.47 190.51 221.65 182.99 221.98 C 170.89 222.22 157.99 222.30 147.23 215.91 M 239.41 221.08 C 239.11 226.95 237.96 232.74 236.56 238.43 C 233.42 250.08 229.82 261.89 222.95 271.96 C 221.34 271.27 219.74 270.57 218.13 269.87 C 216.48 272.11 214.81 274.32 213.10 276.52 C 223.69 278.49 234.07 281.42 244.20 285.08 C 244.41 281.76 244.59 278.44 244.98 275.14 C 240.90 274.77 236.83 274.33 232.74 274.00 C 236.01 268.36 238.13 262.16 239.99 255.95 C 246.92 257.05 253.96 257.22 260.91 258.22 C 262.46 266.45 261.91 274.79 260.98 283.05 C 270.61 281.53 280.49 280.06 290.22 281.54 C 291.59 279.36 292.99 277.19 294.40 275.03 C 291.00 273.88 286.31 274.08 284.28 270.64 C 277.49 252.22 272.22 233.05 262.33 215.94 C 254.87 218.40 247.16 219.95 239.41 221.08 M 219.09 438.78 C 217.98 447.83 221.00 456.80 219.78 465.82 C 219.31 469.74 214.56 472.55 215.45 476.53 C 223.57 477.23 231.72 477.83 239.88 478.27 C 249.86 479.69 259.97 478.68 270.01 479.06 C 277.44 479.80 283.74 475.11 289.94 471.77 C 289.88 471.43 289.77 470.76 289.71 470.42 C 286.68 468.50 283.34 466.93 279.80 466.28 C 268.01 465.48 256.21 464.49 244.43 463.63 C 235.64 455.74 227.80 446.79 219.09 438.78 Z" />
<path fill="#000000" opacity="1.00" d=" M 479.05 220.90 C 480.83 233.18 481.23 245.63 480.86 258.02 C 480.53 263.40 480.72 268.89 479.23 274.12 C 478.76 256.39 479.07 238.64 479.05 220.90 Z" />
<path fill="#000000" opacity="1.00" d=" M 331.31 232.23 C 337.60 231.61 344.31 232.03 350.10 234.78 C 352.69 235.72 353.85 239.60 351.33 241.29 C 346.03 245.13 339.33 246.28 332.96 246.97 C 326.95 247.16 320.65 246.49 315.19 243.84 C 312.88 243.17 313.31 240.14 314.83 238.88 C 319.19 234.60 325.44 233.09 331.31 232.23 Z" />
<path fill="#000000" opacity="1.00" d=" M 253.31 233.17 C 256.43 232.67 260.30 232.95 262.46 235.55 C 264.50 239.46 262.43 244.82 258.38 246.51 C 254.16 248.18 249.28 248.66 244.92 247.19 C 242.17 246.58 240.73 243.71 241.60 241.08 C 243.22 236.25 248.66 234.00 253.31 233.17 Z" />
<path fill="#000000" opacity="1.00" d=" M 172.48 236.02 C 179.60 235.80 186.72 237.17 193.44 239.49 C 197.34 240.84 201.24 242.99 203.42 246.64 C 205.75 250.78 205.72 256.67 202.09 260.08 C 198.36 263.66 192.98 264.57 188.02 264.99 C 183.45 265.14 178.30 265.02 174.37 262.57 C 171.25 254.17 171.12 244.81 172.48 236.02 Z" />
</g>
<g id="#464646ff">
<path fill="#464646" opacity="1.00" d=" M 277.45 39.39 C 281.64 38.83 285.51 42.18 289.43 43.53 C 293.82 45.89 300.36 46.65 301.80 52.25 C 306.32 65.65 311.09 78.96 315.68 92.34 C 316.82 95.35 317.77 98.85 315.68 101.70 C 308.12 114.24 300.91 127.00 293.57 139.66 C 292.86 141.89 290.57 140.64 289.97 139.06 C 279.07 122.27 268.43 105.31 257.42 88.60 C 254.10 83.16 253.13 76.77 251.21 70.80 C 250.36 67.63 248.95 64.52 249.01 61.19 C 249.06 59.82 250.57 59.24 251.40 58.37 C 257.84 53.45 264.62 48.99 270.99 43.98 C 273.08 42.37 275.14 40.68 277.45 39.39 Z" />
<path fill="#464646" opacity="1.00" d=" M 135.99 52.96 C 138.97 51.58 142.13 49.13 145.58 50.38 C 151.38 52.16 157.11 54.20 162.85 56.19 C 172.33 59.95 182.21 62.58 191.71 66.27 C 200.53 69.61 209.66 72.08 218.43 75.54 C 228.70 79.27 239.22 82.26 249.34 86.40 C 248.19 89.92 246.20 93.05 244.01 96.01 C 235.23 109.27 226.81 122.77 218.03 136.03 C 216.17 139.44 211.96 139.65 208.66 140.71 C 174.05 150.48 139.51 160.49 104.91 170.28 C 105.69 181.42 108.22 192.36 109.35 203.48 C 117.88 210.99 126.12 218.84 134.73 226.27 C 139.95 231.80 146.40 236.01 151.21 241.94 C 141.60 241.84 131.94 242.44 122.37 241.70 C 118.61 238.39 116.02 233.99 112.85 230.14 C 101.03 215.28 89.51 200.20 77.53 185.46 C 73.02 180.20 71.80 173.17 69.02 166.99 C 64.93 155.81 60.39 144.78 56.37 133.58 C 54.89 130.13 57.84 127.23 59.59 124.59 C 64.59 118.22 68.37 110.89 74.23 105.23 C 77.09 102.42 80.04 99.69 82.54 96.55 C 93.69 82.97 108.03 72.66 121.23 61.22 C 125.55 57.50 131.08 55.72 135.99 52.96 Z" />
<path fill="#464646" opacity="1.00" d=" M 384.05 82.06 C 389.40 81.12 394.66 79.67 400.06 79.02 C 403.82 78.59 405.82 82.58 408.11 84.87 C 416.44 95.51 426.75 104.64 433.53 116.44 C 435.93 120.18 438.35 123.91 440.37 127.88 C 432.90 128.23 425.35 127.44 417.95 128.89 C 409.77 130.37 401.45 130.92 393.27 132.38 C 384.75 134.88 376.58 138.44 368.10 141.07 C 366.48 141.66 364.64 142.09 363.50 143.49 C 357.37 150.67 350.27 156.92 343.81 163.80 C 342.21 165.23 340.59 167.57 338.13 166.91 C 332.25 165.90 326.58 163.96 320.76 162.70 C 322.77 153.35 326.63 144.53 329.35 135.37 C 331.95 125.91 337.77 117.89 342.23 109.28 C 344.13 106.00 345.40 101.89 349.02 100.06 C 356.01 96.44 362.72 92.32 369.64 88.60 C 374.24 86.01 378.75 82.96 384.05 82.06 Z" />
<path fill="#464646" opacity="1.00" d=" M 408.34 147.33 C 410.45 145.56 413.42 146.05 415.97 145.90 C 427.52 146.16 439.07 145.82 450.62 146.11 C 454.67 153.14 459.76 159.59 462.88 167.13 C 465.49 173.57 468.01 180.05 470.50 186.54 C 474.66 197.06 475.51 208.46 478.78 219.23 C 478.85 219.65 478.98 220.48 479.05 220.90 C 479.07 238.64 478.76 256.39 479.23 274.12 L 478.98 274.91 C 476.02 282.62 474.93 290.85 472.80 298.80 C 470.08 309.17 468.89 320.12 463.76 329.70 C 459.84 337.23 457.64 345.63 452.62 352.56 C 448.93 336.69 445.72 320.72 442.12 304.83 C 440.87 299.71 440.63 294.39 441.21 289.17 C 442.31 279.47 443.55 269.78 444.16 260.04 C 424.10 259.90 404.03 260.09 383.98 259.99 C 380.89 260.32 379.27 257.41 377.63 255.35 C 372.87 248.75 368.01 242.23 363.00 235.82 C 362.73 236.96 362.47 238.10 362.23 239.25 C 362.95 233.08 360.67 226.62 355.27 223.23 C 359.13 212.01 360.78 200.20 363.77 188.75 C 365.22 183.47 370.32 180.61 374.14 177.16 C 385.58 167.27 397.00 157.34 408.34 147.33 Z" />
<path fill="#464646" opacity="1.00" d=" M 133.37 244.72 C 141.33 246.79 148.56 250.90 156.17 253.94 C 156.27 253.40 156.46 252.33 156.55 251.80 C 157.62 258.39 159.27 264.87 161.53 271.15 C 158.04 270.76 154.57 271.34 151.36 272.73 C 151.76 276.37 152.11 280.02 152.34 283.68 C 162.34 279.05 173.44 281.71 183.97 281.96 C 192.67 282.31 202.31 281.95 209.36 276.15 C 211.55 277.94 214.05 279.31 216.69 280.31 C 224.67 283.44 232.34 287.28 240.32 290.41 C 238.82 295.13 235.57 298.93 233.16 303.18 C 227.51 312.50 221.62 321.67 215.99 331.00 C 213.44 335.37 209.39 339.50 209.90 344.96 C 210.24 353.72 209.42 362.54 210.62 371.26 C 211.61 379.77 210.43 388.36 211.24 396.89 C 212.62 407.26 211.80 417.75 211.96 428.18 C 198.40 410.65 185.18 392.86 171.86 375.13 C 158.96 358.63 146.68 341.66 133.99 325.00 C 125.39 314.21 117.44 302.93 108.96 292.04 C 107.51 289.98 104.66 287.45 106.80 284.85 C 115.59 271.43 124.75 258.25 133.37 244.72 Z" />
<path fill="#464646" opacity="1.00" d=" M 219.09 438.78 C 227.80 446.79 235.64 455.74 244.43 463.63 C 256.21 464.49 268.01 465.48 279.80 466.28 C 283.34 466.93 286.68 468.50 289.71 470.42 C 289.77 470.76 289.88 471.43 289.94 471.77 C 283.74 475.11 277.44 479.80 270.01 479.06 C 259.97 478.68 249.86 479.69 239.88 478.27 C 231.72 477.83 223.57 477.23 215.45 476.53 C 214.56 472.55 219.31 469.74 219.78 465.82 C 221.00 456.80 217.98 447.83 219.09 438.78 Z" />
</g>
<g id="#ffffffff">
<path fill="#ffffff" opacity="1.00" d=" M 147.23 215.91 C 157.99 222.30 170.89 222.22 182.99 221.98 C 190.51 221.65 198.57 223.47 204.10 228.87 C 210.69 235.13 213.19 244.31 214.90 252.95 C 216.44 260.87 215.91 270.54 209.36 276.15 C 202.31 281.95 192.67 282.31 183.97 281.96 C 173.44 281.71 162.34 279.05 152.34 283.68 C 152.11 280.02 151.76 276.37 151.36 272.73 C 154.57 271.34 158.04 270.76 161.53 271.15 C 159.27 264.87 157.62 258.39 156.55 251.80 C 155.19 244.65 155.29 237.37 154.89 230.15 C 154.32 226.56 149.91 226.93 147.29 225.71 C 147.09 222.45 147.09 219.18 147.23 215.91 M 172.48 236.02 C 171.12 244.81 171.25 254.17 174.37 262.57 C 178.30 265.02 183.45 265.14 188.02 264.99 C 192.98 264.57 198.36 263.66 202.09 260.08 C 205.72 256.67 205.75 250.78 203.42 246.64 C 201.24 242.99 197.34 240.84 193.44 239.49 C 186.72 237.17 179.60 235.80 172.48 236.02 Z" />
<path fill="#ffffff" opacity="1.00" d=" M 239.41 221.08 C 247.16 219.95 254.87 218.40 262.33 215.94 C 272.22 233.05 277.49 252.22 284.28 270.64 C 286.31 274.08 291.00 273.88 294.40 275.03 C 292.99 277.19 291.59 279.36 290.22 281.54 C 280.49 280.06 270.61 281.53 260.98 283.05 C 261.91 274.79 262.46 266.45 260.91 258.22 C 253.96 257.22 246.92 257.05 239.99 255.95 C 238.13 262.16 236.01 268.36 232.74 274.00 C 236.83 274.33 240.90 274.77 244.98 275.14 C 244.59 278.44 244.41 281.76 244.20 285.08 C 234.07 281.42 223.69 278.49 213.10 276.52 C 214.81 274.32 216.48 272.11 218.13 269.87 C 219.74 270.57 221.34 271.27 222.95 271.96 C 229.82 261.89 233.42 250.08 236.56 238.43 C 237.96 232.74 239.11 226.95 239.41 221.08 M 253.31 233.17 C 248.66 234.00 243.22 236.25 241.60 241.08 C 240.73 243.71 242.17 246.58 244.92 247.19 C 249.28 248.66 254.16 248.18 258.38 246.51 C 262.43 244.82 264.50 239.46 262.46 235.55 C 260.30 232.95 256.43 232.67 253.31 233.17 Z" />
<path fill="#ffffff" opacity="1.00" d=" M 293.49 215.91 C 302.60 220.49 313.00 223.23 323.21 221.49 C 333.80 220.53 345.42 217.74 355.27 223.23 C 360.67 226.62 362.95 233.08 362.23 239.25 C 360.53 249.86 353.57 261.36 342.02 262.82 C 333.75 264.33 325.86 260.56 319.66 255.39 C 321.76 264.30 325.21 272.84 329.33 281.00 C 317.88 283.00 306.44 285.11 294.98 287.03 C 294.91 285.13 294.86 283.23 294.85 281.33 C 297.72 280.07 303.44 279.75 302.84 275.40 C 300.65 259.57 299.01 243.34 302.56 227.57 C 299.35 228.06 296.07 228.15 292.95 227.16 C 293.14 223.41 293.36 219.66 293.49 215.91 M 331.31 232.23 C 325.44 233.09 319.19 234.60 314.83 238.88 C 313.31 240.14 312.88 243.17 315.19 243.84 C 320.65 246.49 326.95 247.16 332.96 246.97 C 339.33 246.28 346.03 245.13 351.33 241.29 C 353.85 239.60 352.69 235.72 350.10 234.78 C 344.31 232.03 337.60 231.61 331.31 232.23 Z" />
</g>
</svg>
